<?xml version="1.0" encoding="iso-8859-1"?>
<!-- Generator: Adobe Illustrator 19.0.0, SVG Export Plug-In . SVG Version: 6.00 Build 0)  -->
<svg xmlns="http://www.w3.org/2000/svg" xmlns:xlink="http://www.w3.org/1999/xlink" version="1.1" id="Capa_1" x="0px" y="0px" viewBox="0 0 512 512" style="enable-background:new 0 0 512 512;" xml:space="preserve" width="512px" height="512px">
<g>
	<g>
		<path d="M503.156,476.454c-3.963-1.944-7.823-4.416-11.463-7.326c-32.461-25.968-77.089-25.968-109.549,0    c-21.581,17.282-49.538,17.282-71.12,0c-32.461-25.968-76.091-25.968-108.551,0c-21.581,17.282-49.538,17.282-71.12,0    c-32.461-25.968-77.075-25.968-109.534,0c-4.007,3.202-8.276,5.848-12.677,7.896c-7.501,3.48-10.761,12.384-7.282,19.886    c3.48,7.486,12.34,10.82,19.886,7.282c6.565-3.041,13.88-6.974,19.773-11.668c21.581-17.282,49.538-17.282,71.12,0    c32.461,25.968,76.091,25.968,108.551,0c21.581-17.282,49.538-17.282,71.12,0C308.54,505.508,327.562,512,346.585,512    s38.045-6.492,54.276-19.476c21.581-17.282,49.509-17.297,71.149,0.015c5.335,4.253,12.051,7.894,17.958,10.789    c7.383,3.611,16.376,0.57,20.031-6.842C513.639,489.072,510.584,480.095,503.156,476.454z" fill="#FFFFFF"/>
	</g>
</g>
<g>
	<g>
		<path d="M418.781,392.939c2.749-3.109,5.708-5.984,7.989-9.61c48.557-77.168-32.03-246.202-70.9-328.074l-9.138-20.002    l9.694-9.694c5.848-5.848,5.848-15.324,0-21.172c-5.848-5.848-15.324-5.848-21.172,0l-6.985,6.985    c-9.976-6.408-22.329-8.932-34.396-6.176c-0.247,0.051-0.484-0.026-0.73,0.038l-0.216,0.053c-0.016,0.004-0.031,0.002-0.048,0.005    c-74.313,18.571-12.362,3.096-100.392,25.105c-6.668,1.667-11.346,7.647-11.346,14.519v39.307c0,19.36,12.34,36.481,30.706,42.622    l29.185,9.709v19.915c-32.52,17.047-53.935,48.32-58.691,84.089h13.774c51.044,0,84.806-8.452,106.387-51.614    c3.67-7.413,12.706-10.381,20.09-6.697c7.398,3.699,10.396,12.692,6.697,20.09c-34.085,68.167-98.537,68.167-133.176,68.167    h-46.145c-4.834,6.388-9.028,13.337-11.668,21.245l-9.446,28.41c-2.047,6.127-7.765,10.235-14.213,10.235H76.331    c-11.087,0-18.385,11.72-13.393,21.669c7.081,14.313,14.113,29.801,23.675,41.953c-17.713,4.856-32.85,15.996-42.75,30.956    c10.734-3.27,21.825-5.265,33.229-5.265c26.436,0,51.673,9.007,72.962,26.041c10.673,8.526,23.042,8.541,33.703,0    c21.304-17.034,46.541-26.041,72.991-26.041c26.451,0,51.687,9.007,72.976,26.041c10.673,8.526,23.042,8.541,33.703,0    c21.304-17.034,46.541-26.041,72.991-26.041c10.789,0,21.276,1.876,31.475,4.805C456.786,407.979,439.118,396.58,418.781,392.939z     M256.002,59.89c-8.269,0-14.973-6.704-14.973-14.973s6.704-14.973,14.973-14.973c8.269,0,14.973,6.704,14.973,14.973    S264.271,59.89,256.002,59.89z" fill="#FFFFFF"/>
	</g>
</g>
<g>
</g>
<g>
</g>
<g>
</g>
<g>
</g>
<g>
</g>
<g>
</g>
<g>
</g>
<g>
</g>
<g>
</g>
<g>
</g>
<g>
</g>
<g>
</g>
<g>
</g>
<g>
</g>
<g>
</g>
</svg>
